

FULL_INFOs

99.99% --- SYNCED GUARANTEED 

Source : HD DVD

My Media Player of Choice "VLC Media Player"

Spoken Language : English Only

Audio : 6 ~ Channels 


 
http://www.imdb.com/title/tt0266747/




Subs Info : MULTI_SUBS

 
http://www.subtitleseeker.com/0266747/Marci+X/Subtitles/

34 Subtitles In 13 Languages Use Link Provided 
 
http://www.subtitleseeker.com/0266747/Marci+X/Subtitles/

34 Subtitles In 13 Languages Only @ SubtitleSeeker
 
http://www.subtitleseeker.com/0266747/Marci+X/Subtitles/

All .srt subs can be turned On/Off


 
http://www.imdb.com/title/tt0266747/


General 

Complete name : Marci X Uptown Gets Downtown 2003.576i.HDRiP.x264 . NVEE.mp4 
Format : MPEG-4 
Format profile : Base Media 
Codec ID : isom 
File size : 1.25 GiB 
Duration : 1h 20mn 
Overall bit rate : 2 223 Kbps 
Encoded date : UTC 2013-03-23 02:35:10 
Tagged date : UTC 2013-03-23 02:35:10 

Video 

ID : 1 
Format : AVC 
Format/Info : Advanced Video Codec 
Format profile : High@L3.1 
Format settings, CABAC : Yes 
Format settings, ReFrames : 4 frames 
Codec ID : avc1 
Codec ID/Info : Advanced Video Coding 
Duration : 1h 20mn 
Bit rate : 1 773 Kbps 
Maximum bit rate : 7 823 Kbps 
Width : 1 024 pixels 
Height : 576 pixels 
Display aspect ratio : 16:9 
Frame rate mode : Constant 
Frame rate : 25.000 fps 
Color space : YUV 
Chroma subsampling : 4:2:0 
Bit depth : 8 bits 
Scan type : Progressive 
Bits/(Pixel*Frame) : 0.120 
Stream size : 1 023 MiB (80%) 
Writing library : x264 core 129 r2245 bc13772 
Encoded date : UTC 2013-03-23 01:10:38 
Tagged date : UTC 2013-03-23 02:37:22 
Color primaries : Generic film 

Audio 

ID : 2 
Format : AC-3 
Format/Info : Audio Coding 3 
Mode extension : CM (complete main) 
Format settings, Endianness : Big 
Codec ID : ac-3 
Duration : 1h 20mn 
Bit rate mode : Constant 
Bit rate : 448 Kbps 
Channel(s) : 6 channels 
Channel positions : Front: L C R, Side: L R, LFE 
Sampling rate : 48.0 KHz 
Bit depth : 16 bits 
Compression mode : Lossy 
Delay relative to video : 80ms 
Stream size : 258 MiB (20%) 
Title : NVEE - [1] English.ac3#trackID=1:lang=en@GPAC0.5.1-DEV-rev4283 
Language : English 
Encoded date : UTC 2013-03-23 02:36:48 
Tagged date : UTC 2013-03-23 02:37:22 



Plot

In this hilarious culture-clash comedy Lisa Kudrow and Damon Wayans star as Marci Feld, the spoiled daughter of a media mogul who is forced to take charge of daddy's rap record label, and the company's foul-mouthed, dangerous superstar, Dr. S. When surprising romantic sparks begin flying between Marci and Dr. S, it's a case of "hip-hop meets shop-til-you-drop." Richard Benjamin (who also directed) costars with Christine Baranski, Jane Krakowski, Paula Garces and Charles Kimbrough.

Marci X is a 2003 romantic comedy film, directed by Richard Benjamin and written by Paul Rudnick. It stars Lisa Kudrow as Jewish-American Princess Marci Feld, who has to take control of a hip-hop record label, as well as the controversial rapper Dr S, played by Damon Wayans.
The film also featured Andrew Keenan-Bolger, Charles Kimbrough, Jane Krakowski, Richard Benjamin and Christine Baranski, and included a brief appearance by former BodyShaping host Jennifer Dempster.


PLEASE SEED !!!
  (Thank You)


 
http://www.imdb.com/title/tt0266747/

